# xmcd CD database file
#
# Track frame offsets:
#	150
#	18942
#	51410
#	93082
#	118160
#	145117
#	168300
#
# Disc length: 2548 seconds
#
# Revision: 1
# Processed by: cddbd v1.5.2PL0 Copyright (c) Steve Scherf et al.
# Submitted via: CDex 1.70beta3
#
DISCID=5509f207
DTITLE=Curtis Fuller - Boss of the Soul Stream Trombone
DYEAR=1960
DGENRE=Jazz
TTITLE0=Chantized
TTITLE1=Flutie
TTITLE2=If I Were A Bell
TTITLE3=But Beautiful
TTITLE4=Do I Love You
TTITLE5=The Court
TTITLE6=Mr. L
EXTD=YEAR: 1960
EXTT0=
EXTT1=
EXTT2=
EXTT3=
EXTT4=
EXTT5=
EXTT6=
PLAYORDER=
